<svg width="30" height="30" viewBox="0 0 30 30" fill="none" xmlns="http://www.w3.org/2000/svg">
<g clip-path="url(#clip0_1426_1877)">
<rect width="30" height="30" rx="10" fill="#D24D54"/>
<path d="M20.8686 10.7483C20.9193 10.8872 20.9656 10.9556 21.0164 11.068C21.4463 12.025 21.6933 12.1925 22.3724 12.9268C23.2918 13.9212 23.7989 15.0898 23.8011 16.4634C20.4695 19.59 15.0014 21.9426 10.4902 22.5754C9.57735 21.8169 8.84973 20.8556 8.48152 19.7156C8.43521 19.6671 8.1133 19.698 8.01628 19.6892C7.11889 19.6054 6.38245 18.8403 6.1774 17.9914C6.15976 17.9164 6.11125 17.7467 6.10243 17.6959C5.9547 16.7941 6.50593 15.566 7.06377 14.8759C7.33276 14.5429 7.67232 14.2651 7.95013 13.9388C8.99967 12.7041 9.18929 10.9313 9.9588 9.49153C12.2563 5.18978 17.9207 5.0641 20.2799 9.37688C20.5247 9.82667 20.6944 10.2721 20.8664 10.7483H20.8686ZM17.9538 11.9632C16.9968 12.1176 16.8866 14.1747 17.8413 14.4548C19.2127 14.856 19.2943 11.7493 17.9538 11.9632ZM13.5418 12.0602C12.5606 12.2256 12.5275 14.3621 13.4734 14.5562C14.8889 14.8472 14.9176 11.8265 13.5418 12.0602ZM15.094 14.8186C14.9308 14.8516 14.9419 15.0214 15.0102 15.1383C15.2902 15.6189 15.923 15.7777 16.4147 15.5241C16.5823 15.4381 17.0542 15.0324 16.8006 14.8516C16.5735 14.6885 16.4699 15.0655 16.2913 15.1802C16.0245 15.3499 15.6408 15.2904 15.4203 15.0721C15.3189 14.9729 15.2726 14.7811 15.094 14.8186Z" fill="white"/>
<path d="M23.776 16.8845C23.6812 17.9671 23.1631 19.0409 22.3715 19.7796C22.2987 19.8457 22.1223 19.9471 22.0738 20.0067C21.968 20.1434 21.8159 20.5645 21.699 20.7607C19.633 24.2599 14.7426 25.1617 11.3184 23.1641C11.1728 23.0803 10.9612 22.9017 10.8267 22.8422C10.7804 22.8223 10.7363 22.8179 10.6855 22.8223C15.0623 22.1763 20.4665 19.8281 23.776 16.8845Z" fill="white"/>
<path d="M20.8679 10.7483C20.89 10.7924 20.9032 10.799 20.9539 10.8012C21.1744 10.8056 21.503 10.7328 21.7433 10.724C22.6495 10.6865 23.5954 10.724 24.4685 10.9842C24.5369 11.004 24.6802 11.09 24.7331 11.09C24.786 11.09 24.8213 11.015 24.8654 10.9864C25.4519 10.5961 26.1332 11.0393 26.0473 11.725C26.0362 11.822 25.9657 11.8794 25.9524 11.9521C25.9348 12.0469 26.0958 12.3446 26.1332 12.4769C26.5808 14.0424 24.9051 15.8438 23.8049 16.8272C23.7828 16.847 23.7828 16.8845 23.7784 16.8867C20.4689 19.8302 15.0647 22.1784 10.6879 22.8245C9.13349 23.0538 7.06088 23.1596 5.58581 22.5643C5.491 22.5268 5.12058 22.3151 5.07648 22.3107C5.03238 22.3063 4.83173 22.4695 4.72369 22.4915C3.94096 22.6547 3.38753 21.7816 3.89906 21.173C3.95419 21.1069 4.13719 21.0032 4.15042 20.9569C4.17027 20.8952 4.14601 20.8092 4.15483 20.7408C4.30917 19.4708 5.18452 18.5117 6.10175 17.6981C6.11057 17.7488 6.15688 17.9186 6.17672 17.9935C6.12821 17.9935 6.10837 18.0266 6.0775 18.0553C5.37414 18.6947 4.501 19.7685 4.42603 20.7166C4.42162 20.7783 4.42603 20.8401 4.42603 20.9018C4.43706 20.9128 4.63109 20.8908 4.6818 20.9018C4.68842 20.9018 4.75015 20.9283 4.7722 20.9371C5.08971 21.0606 5.31681 21.3516 5.31681 21.7022C5.31681 21.8433 5.24625 21.9668 5.24405 22.1057C5.77322 22.3901 6.3465 22.5467 6.93962 22.6349C8.1016 22.809 9.33634 22.7385 10.4939 22.5775C15.0051 21.9469 20.4755 19.5943 23.8049 16.4656C24.3054 15.9959 24.7706 15.5196 25.1653 14.9552C25.7011 14.1945 26.2699 13.0987 25.7143 12.2057C25.1146 12.6004 24.4024 12.0006 24.6075 11.3414C23.483 10.9048 22.1997 10.9313 21.0179 11.0702C20.9672 10.9577 20.9209 10.8894 20.8702 10.7505L20.8679 10.7483Z" fill="#222F4F"/>
<path d="M13.5417 12.0603C14.9175 11.8265 14.8889 14.8495 13.4733 14.5562C12.5274 14.3622 12.5627 12.2256 13.5417 12.0603ZM13.9849 12.4042C13.5461 12.4483 13.6982 13.2818 14.1326 13.0701C14.4545 12.9114 14.309 12.3734 13.9849 12.4042Z" fill="#222F4F"/>
<path d="M17.954 11.9632C19.2968 11.7471 19.213 14.856 17.8416 14.4547C16.8869 14.1747 16.9949 12.1175 17.954 11.9632ZM18.3002 12.3314C17.9033 12.435 18.1547 13.2464 18.5516 12.9532C18.8183 12.7547 18.6552 12.241 18.3002 12.3314Z" fill="#222F4F"/>
<path d="M15.0938 14.8184C15.2746 14.7831 15.3209 14.9727 15.4201 15.0719C15.6406 15.2902 16.0243 15.3476 16.2911 15.18C16.4697 15.0675 16.5711 14.6883 16.8004 14.8514C17.054 15.0323 16.5821 15.438 16.4145 15.5239C15.9228 15.7775 15.29 15.6188 15.01 15.1381C14.9417 15.0212 14.9306 14.8514 15.0938 14.8184Z" fill="#222F4F"/>
<path d="M13.9837 12.404C14.3079 12.371 14.4534 12.9112 14.1315 13.0699C13.6971 13.2838 13.545 12.4481 13.9837 12.404Z" fill="white"/>
<path d="M18.2997 12.3314C18.6547 12.2388 18.8178 12.7525 18.5511 12.9532C18.1542 13.2486 17.9028 12.435 18.2997 12.3314Z" fill="white"/>
</g>
<defs>
<clipPath id="clip0_1426_1877">
<rect width="30" height="30" rx="10" fill="white"/>
</clipPath>
</defs>
</svg>
